<?xml version="1.0" encoding="utf-8"?>
<!-- Generator: Adobe Illustrator 27.5.0, SVG Export Plug-In . SVG Version: 6.00 Build 0)  -->
<svg version="1.1" id="Layer_1" xmlns:xodm="http://www.corel.com/coreldraw/odm/2003"
	 xmlns="http://www.w3.org/2000/svg" xmlns:xlink="http://www.w3.org/1999/xlink" x="0px" y="0px" viewBox="0 0 4000 4000"
	 style="enable-background:new 0 0 4000 4000;" xml:space="preserve">
<rect style="fill:#FFFFFF;" width="4000" height="4000"/>
<g>
	<path style="fill:#333333;" d="M1695.72,1726.13c-151.25,0-273.87,122.62-273.87,273.87c0,151.26,122.62,273.87,273.87,273.87
		c151.26,0,273.88-122.61,273.88-273.87C1969.6,1848.75,1846.98,1726.13,1695.72,1726.13z M2302.52,1997.67l224.16-277.31
		l-173.3-300.17l-352.11,55.46c-1.41-0.82-2.81-1.66-4.23-2.47l-128.01-332.62h-346.61l-128.01,332.62
		c-1.42,0.81-2.82,1.65-4.23,2.47l-352.11-55.46l-173.3,300.17l224.16,277.31v4.66l-224.16,277.31l173.3,300.17l352.11-55.46
		c1.41,0.83,2.81,1.66,4.23,2.47l128.01,332.63h346.61l128.02-332.66c1.41-0.81,2.81-1.62,4.21-2.44l352.12,55.46l173.3-300.17
		l-224.17-277.32L2302.52,1997.67z M2292.45,1545.79l95,164.54l-105.91,131.01c-13.45-49.54-33.42-98.19-60.3-144.74
		c-26.88-46.56-59.02-88.18-95.2-124.6L2292.45,1545.79z M1600.73,1256.11h189.99l60.51,157.23
		c-49.63-13.13-101.75-20.15-155.51-20.15c-53.75,0-105.87,7.02-155.5,20.15L1600.73,1256.11z M1099,2454.21l-95-164.54
		l105.9-131.01c13.46,49.55,33.43,98.19,60.31,144.75c26.88,46.55,59.02,88.17,95.2,124.6L1099,2454.21z M1170.21,1696.6
		c-26.88,46.55-46.85,95.2-60.31,144.74L1004,1710.33l95-164.54l166.41,26.21C1229.23,1608.42,1197.09,1650.04,1170.21,1696.6z
		 M1790.72,2743.89h-189.99l-60.51-157.22c49.63,13.12,101.75,20.14,155.5,20.14c53.76,0,105.88-7.02,155.51-20.14L1790.72,2743.89z
		 M1695.72,2428.01c-236.38,0-428-191.63-428-428.01s191.62-428,428-428s428.01,191.62,428.01,428S1932.1,2428.01,1695.72,2428.01z
		 M2387.45,2289.67l-95,164.54l-166.41-26.2c36.18-36.43,68.32-78.05,95.2-124.6c26.88-46.56,46.85-95.2,60.3-144.75
		L2387.45,2289.67z M1695.72,1726.13c-151.25,0-273.87,122.62-273.87,273.87c0,151.26,122.62,273.87,273.87,273.87
		c151.26,0,273.88-122.61,273.88-273.87C1969.6,1848.75,1846.98,1726.13,1695.72,1726.13z"/>
	<path style="fill:#333333;" d="M1969.6,2000c0,151.26-122.62,273.87-273.88,273.87c-151.25,0-273.87-122.61-273.87-273.87
		c0-151.25,122.62-273.87,273.87-273.87C1846.98,1726.13,1969.6,1848.75,1969.6,2000z"/>
	<path style="fill:#333333;" d="M2911.07,1997.67l224.16-277.31l-173.3-300.17l-352.11,55.46c-1.41-0.82-2.81-1.66-4.23-2.47
		l-128.01-332.62h-346.61l-86.67,225.2l7.04,18.29l115.72-18.22l42.22-109.72h189.99l60.51,157.23c-5.76-1.53-11.55-2.97-17.37-4.32
		l169.31,293.25c74.62,77.03,120.56,182.01,120.56,297.73s-45.94,220.7-120.56,297.74l-169.31,293.24
		c5.82-1.35,11.61-2.79,17.37-4.31l-60.51,157.22h-189.99l-42.22-109.71l-122.76,0.07l86.67,225.2h346.61l128.03-332.66
		c1.4-0.81,2.8-1.62,4.2-2.44l352.12,55.46l173.3-300.17l-224.17-277.32L2911.07,1997.67z M2901,1545.79l95,164.54l-105.9,131.01
		c-13.46-49.54-33.43-98.19-60.31-144.74c-26.88-46.56-59.02-88.18-95.2-124.6L2901,1545.79z M2996,2289.67l-95,164.54l-166.41-26.2
		c36.18-36.43,68.32-78.05,95.2-124.6c26.88-46.56,46.85-95.2,60.31-144.75L2996,2289.67z"/>
</g>
</svg>
